<svg width="22" height="22" viewBox="0 0 22 22" fill="none" xmlns="http://www.w3.org/2000/svg">
<path d="M14.8409 1.83337H7.15921C3.82254 1.83337 1.83337 3.82254 1.83337 7.15921V14.8317C1.83337 18.1775 3.82254 20.1667 7.15921 20.1667H14.8317C18.1684 20.1667 20.1575 18.1775 20.1575 14.8409V7.15921C20.1667 3.82254 18.1775 1.83337 14.8409 1.83337ZM8.35087 15.4917C8.35087 15.7484 8.14921 15.95 7.89254 15.95H5.33504C5.07837 15.95 4.87671 15.7484 4.87671 15.4917V11.2567C4.87671 10.6792 5.34421 10.2117 5.92171 10.2117H7.89254C8.14921 10.2117 8.35087 10.4134 8.35087 10.67V15.4917ZM12.7325 15.4917C12.7325 15.7484 12.5309 15.95 12.2742 15.95H9.71671C9.46004 15.95 9.25837 15.7484 9.25837 15.4917V7.09504C9.25837 6.51754 9.72587 6.05004 10.3034 6.05004H11.6967C12.2742 6.05004 12.7417 6.51754 12.7417 7.09504V15.4917H12.7325ZM17.1234 15.4917C17.1234 15.7484 16.9217 15.95 16.665 15.95H14.1075C13.8509 15.95 13.6492 15.7484 13.6492 15.4917V12.2375C13.6492 11.9809 13.8509 11.7792 14.1075 11.7792H16.0784C16.6559 11.7792 17.1234 12.2467 17.1234 12.8242V15.4917Z" fill="white"/>
</svg>
