<svg width="22" height="22" viewBox="0 0 22 22" fill="none" xmlns="http://www.w3.org/2000/svg">
<path d="M13.1542 1.83337H8.84584C7.89251 1.83337 7.11334 2.60337 7.11334 3.55671V4.41837C7.11334 5.37171 7.88334 6.14171 8.83668 6.14171H13.1542C14.1075 6.14171 14.8775 5.37171 14.8775 4.41837V3.55671C14.8867 2.60337 14.1075 1.83337 13.1542 1.83337Z" fill="white"/>
<path d="M15.8034 4.41831C15.8034 5.87581 14.6117 7.06748 13.1542 7.06748H8.84587C7.38837 7.06748 6.1967 5.87581 6.1967 4.41831C6.1967 3.90498 5.6467 3.58415 5.18837 3.82248C3.89587 4.50998 3.01587 5.87581 3.01587 7.44331V16.0691C3.01587 18.3241 4.85837 20.1666 7.11337 20.1666H14.8867C17.1417 20.1666 18.9842 18.3241 18.9842 16.0691V7.44331C18.9842 5.87581 18.1042 4.50998 16.8117 3.82248C16.3534 3.58415 15.8034 3.90498 15.8034 4.41831ZM11.3484 15.5375H7.33337C6.95754 15.5375 6.64587 15.2258 6.64587 14.85C6.64587 14.4741 6.95754 14.1625 7.33337 14.1625H11.3484C11.7242 14.1625 12.0359 14.4741 12.0359 14.85C12.0359 15.2258 11.7242 15.5375 11.3484 15.5375ZM13.75 11.8708H7.33337C6.95754 11.8708 6.64587 11.5591 6.64587 11.1833C6.64587 10.8075 6.95754 10.4958 7.33337 10.4958H13.75C14.1259 10.4958 14.4375 10.8075 14.4375 11.1833C14.4375 11.5591 14.1259 11.8708 13.75 11.8708Z" fill="white"/>
</svg>
