<svg width="22" height="22" viewBox="0 0 22 22" fill="none" xmlns="http://www.w3.org/2000/svg">
<path d="M18.425 8.45165C16.7658 8.45165 16.0875 7.27832 16.9125 5.83915C17.3891 5.00498 17.105 3.94165 16.2708 3.46498L14.685 2.55748C13.9608 2.12665 13.0258 2.38332 12.595 3.10748L12.4941 3.28165C11.6691 4.72082 10.3125 4.72082 9.47831 3.28165L9.37748 3.10748C8.96498 2.38332 8.02998 2.12665 7.30581 2.55748L5.71998 3.46498C4.88581 3.94165 4.60165 5.01415 5.07831 5.84832C5.91248 7.27832 5.23415 8.45165 3.57498 8.45165C2.62165 8.45165 1.83331 9.23081 1.83331 10.1933V11.8066C1.83331 12.76 2.61248 13.5483 3.57498 13.5483C5.23415 13.5483 5.91248 14.7216 5.07831 16.1608C4.60165 16.995 4.88581 18.0583 5.71998 18.535L7.30581 19.4425C8.02998 19.8733 8.96498 19.6166 9.39581 18.8925L9.49665 18.7183C10.3216 17.2791 11.6783 17.2791 12.5125 18.7183L12.6133 18.8925C13.0441 19.6166 13.9791 19.8733 14.7033 19.4425L16.2891 18.535C17.1233 18.0583 17.4075 16.9858 16.9308 16.1608C16.0966 14.7216 16.775 13.5483 18.4341 13.5483C19.3875 13.5483 20.1758 12.7691 20.1758 11.8066V10.1933C20.1666 9.23998 19.3875 8.45165 18.425 8.45165ZM11 13.9791C9.35915 13.9791 8.02081 12.6408 8.02081 11C8.02081 9.35915 9.35915 8.02082 11 8.02082C12.6408 8.02082 13.9791 9.35915 13.9791 11C13.9791 12.6408 12.6408 13.9791 11 13.9791Z" fill="white"/>
</svg>
