<svg width="19" height="19" viewBox="0 0 19 19" fill="none" xmlns="http://www.w3.org/2000/svg">
<path d="M12.8169 1.58313H6.18271C3.30105 1.58313 1.58313 3.30105 1.58313 6.18271V12.809C1.58313 15.6985 3.30105 17.4165 6.18271 17.4165H12.809C15.6906 17.4165 17.4085 15.6985 17.4085 12.8169V6.18271C17.4165 3.30105 15.6985 1.58313 12.8169 1.58313ZM8.66855 13.8619C8.43896 14.0915 8.00355 14.3131 7.68688 14.3606L5.73938 14.6377C5.66813 14.6456 5.59688 14.6535 5.52563 14.6535C5.20105 14.6535 4.90021 14.5427 4.68646 14.329C4.42521 14.0677 4.31438 13.6877 4.37771 13.2681L4.6548 11.3206C4.7023 10.996 4.91605 10.5685 5.15355 10.339L8.68438 6.80813C8.74771 6.97438 8.81105 7.14063 8.89813 7.33063C8.9773 7.49688 9.06438 7.67105 9.15938 7.82938C9.23855 7.96396 9.32563 8.09063 9.39688 8.18563C9.48396 8.32021 9.58688 8.44688 9.65021 8.51813C9.6898 8.57355 9.72146 8.61313 9.7373 8.62896C9.93521 8.86646 10.1648 9.08813 10.3627 9.25438C10.4181 9.3098 10.4498 9.34146 10.4656 9.34938C10.5844 9.44438 10.7031 9.53938 10.806 9.61063C10.9327 9.70563 11.0594 9.79271 11.194 9.86396C11.3523 9.95896 11.5265 10.046 11.7006 10.1331C11.8827 10.2123 12.049 10.2835 12.2152 10.339L8.66855 13.8619ZM13.751 8.77938L13.0227 9.51563C12.9752 9.56313 12.9119 9.58688 12.8485 9.58688C12.8248 9.58688 12.7931 9.58688 12.7773 9.57896C11.1702 9.1198 9.88771 7.8373 9.42855 6.23021C9.4048 6.14313 9.42855 6.04813 9.49188 5.99271L10.2281 5.25646C11.4315 4.05313 12.5794 4.07688 13.759 5.25646C14.3606 5.85813 14.6535 6.43605 14.6535 7.03771C14.6456 7.60771 14.3527 8.17771 13.751 8.77938Z" fill="white"/>
</svg>
