<svg width="19" height="19" viewBox="0 0 19 19" fill="none" xmlns="http://www.w3.org/2000/svg">
<path d="M12.8169 1.58313H6.18271C3.30105 1.58313 1.58313 3.30105 1.58313 6.18271V12.8169C1.58313 15.6985 3.30105 17.4165 6.18271 17.4165H12.8169C15.6985 17.4165 17.4165 15.6985 17.4165 12.8169V6.18271C17.4165 3.30105 15.6985 1.58313 12.8169 1.58313ZM7.89271 11.7956L6.11146 13.5769C5.99271 13.6956 5.8423 13.751 5.69188 13.751C5.54146 13.751 5.38313 13.6956 5.2723 13.5769L4.67855 12.9831C4.44105 12.7535 4.44105 12.3735 4.67855 12.144C4.90813 11.9144 5.28021 11.9144 5.51771 12.144L5.69188 12.3181L7.05355 10.9565C7.28313 10.7269 7.65521 10.7269 7.89271 10.9565C8.1223 11.186 8.1223 11.566 7.89271 11.7956ZM7.89271 6.25396L6.11146 8.03521C5.99271 8.15396 5.8423 8.20938 5.69188 8.20938C5.54146 8.20938 5.38313 8.15396 5.2723 8.03521L4.67855 7.44146C4.44105 7.21188 4.44105 6.83188 4.67855 6.6023C4.90813 6.37271 5.28021 6.37271 5.51771 6.6023L5.69188 6.77646L7.05355 5.4148C7.28313 5.18521 7.65521 5.18521 7.89271 5.4148C8.1223 5.64438 8.1223 6.02438 7.89271 6.25396ZM13.9015 13.1573H9.74521C9.42063 13.1573 9.15146 12.8881 9.15146 12.5635C9.15146 12.239 9.42063 11.9698 9.74521 11.9698H13.9015C14.234 11.9698 14.4952 12.239 14.4952 12.5635C14.4952 12.8881 14.234 13.1573 13.9015 13.1573ZM13.9015 7.61563H9.74521C9.42063 7.61563 9.15146 7.34646 9.15146 7.02188C9.15146 6.6973 9.42063 6.42813 9.74521 6.42813H13.9015C14.234 6.42813 14.4952 6.6973 14.4952 7.02188C14.4952 7.34646 14.234 7.61563 13.9015 7.61563Z" fill="white"/>
</svg>
